# xmcd
#
# Track frame offsets: 
#        150
#        22864
#        41666
#        57563
#        74471
#        95195
#        113564
#        136082
#        154322
#        170828
#        190652
#        211051
#        229764
#        247571
#        265470
#        284332
#        313435
#        337964
#
# Disc length: 4686 seconds
#
# Revision: 0
# Processed by: cddbd v1.5.2PL0 Copyright (c) Steve Scherf et al.
# Submitted via: ExactAudioCopyFreeDBPlugin 1.0
#
DISCID=06124c12
DTITLE=Hong Ngoc - The best of
DYEAR=1900
DGENRE=
TTITLE0=Dem chia tay
TTITLE1=Giac mo mua dong
TTITLE2=Tinh nhu giac mo
TTITLE3=Trai tim be bong
TTITLE4=Mong cho
TTITLE5=Minh mai ben nhau
TTITLE6=Hanoi co em
TTITLE7=Cho mot tieng yeu
TTITLE8=Anh da den roi di
TTITLE9=Goi mai ten anh
TTITLE10=Mat nai chachacha
TTITLE11=Giac mo xa 
TTITLE12=Coi mo
TTITLE13=Cuoc tinh dem
TTITLE14=Dem la vang roi
TTITLE15=TInh muon
TTITLE16=Hon ghen
TTITLE17=bonus
EXTD=
EXTT0=
EXTT1=
EXTT2=
EXTT3=
EXTT4=
EXTT5=
EXTT6=
EXTT7=
EXTT8=
EXTT9=
EXTT10=
EXTT11=
EXTT12=
EXTT13=
EXTT14=
EXTT15=
EXTT16=
EXTT17=
PLAYORDER=
